<svg id="Capa_1" enable-background="new 0 0 512 512" height="512" viewBox="0 0 512 512" width="512" xmlns="http://www.w3.org/2000/svg"><g><g><path d="m167.81 161.47h-94.72v146.91h94.72c5.79 0 10.5-4.71 10.5-10.5v-125.91c0-5.79-4.71-10.5-10.5-10.5zm-27.36 83.57c0 8.29-6.71 15-15 15-8.28 0-15-6.71-15-15v-20.24c0-8.28 6.72-15 15-15 8.29 0 15 6.72 15 15z"/><path d="m73.09 88.09v43.38h94.72c22.33 0 40.5 18.16 40.5 40.5v125.91c0 22.33-18.17 40.5-40.5 40.5h-94.72v43.38h365.82v-293.67zm216.55 227.62h-7.31c-8.28 0-15-6.72-15-15 0-8.29 6.72-15 15-15h7.31c8.29 0 15 6.71 15 15 0 8.28-6.71 15-15 15zm0-65.79h-7.31c-8.28 0-15-6.71-15-15 0-8.28 6.72-15 15-15h7.31c8.29 0 15 6.72 15 15 0 8.29-6.71 15-15 15zm0-65.78h-7.31c-8.28 0-15-6.72-15-15s6.72-15 15-15h7.31c8.29 0 15 6.72 15 15s-6.71 15-15 15zm74.97 131.57h-7.31c-8.28 0-15-6.72-15-15 0-8.29 6.72-15 15-15h7.31c8.28 0 15 6.71 15 15 0 8.28-6.72 15-15 15zm0-65.79h-7.31c-8.28 0-15-6.71-15-15 0-8.28 6.72-15 15-15h7.31c8.28 0 15 6.72 15 15 0 8.29-6.72 15-15 15zm0-65.78h-7.31c-8.28 0-15-6.72-15-15s6.72-15 15-15h7.31c8.28 0 15 6.72 15 15s-6.72 15-15 15z"/><path d="m0 45v379.85c0 16.569 13.431 30 30 30h35.98v37.15c0 2.761 2.239 5 5 5h65.83c2.761 0 5-2.239 5-5v-37.15h228.38v37.15c0 2.761 2.239 5 5 5h65.83c2.761 0 5-2.239 5-5v-37.15h35.98c16.569 0 30-13.431 30-30v-379.85c0-16.569-13.431-30-30-30h-452c-16.569 0-30 13.431-30 30zm468.91 341.76c0 13.78-11.22 25-25 25h-375.82c-13.78 0-25-11.22-25-25v-303.67c0-13.78 11.22-25 25-25h375.82c13.78 0 25 11.22 25 25z"/></g></g></svg>